<?xml version="1.0" standalone="no"?>
<!DOCTYPE svg PUBLIC "-//W3C//DTD SVG 20010904//EN"
 "http://www.w3.org/TR/2001/REC-SVG-20010904/DTD/svg10.dtd">
<svg version="1.0" xmlns="http://www.w3.org/2000/svg"
 width="120.000000pt" height="120.000000pt" viewBox="0 0 120.000000 120.000000"
 preserveAspectRatio="xMidYMid meet">
<metadata>
Created by potrace 1.11, written by Peter Selinger 2001-2013
</metadata>
<g transform="translate(0.000000,120.000000) scale(0.100000,-0.100000)"
fill="#000000" stroke="none">
<path d="M60 610 l0 -250 190 0 190 0 0 177 0 178 -72 72 -72 73 -118 0 -118
0 0 -250z m220 160 l0 -70 70 0 70 0 0 -160 0 -160 -170 0 -170 0 0 230 0 230
100 0 100 0 0 -70z m75 0 l49 -50 -52 0 -52 0 0 50 c0 28 1 50 3 50 1 0 25
-22 52 -50z"/>
<path d="M130 572 c0 -26 -5 -53 -12 -60 -9 -9 -8 -12 4 -12 9 0 19 7 22 16
10 26 7 104 -4 104 -5 0 -10 -22 -10 -48z"/>
<path d="M177 613 c-13 -13 -7 -52 10 -61 10 -6 14 -16 10 -26 -4 -10 -11 -14
-17 -11 -5 3 -10 1 -10 -5 0 -19 45 -6 48 13 2 11 -7 30 -19 43 l-23 25 22 6
c12 3 19 9 16 14 -6 11 -28 12 -37 2z"/>
<path d="M250 605 c-14 -17 -16 -83 -2 -97 5 -5 18 -8 28 -6 34 6 28 118 -6
118 -4 0 -13 -7 -20 -15z m34 -29 c11 -45 -16 -78 -29 -36 -7 22 2 60 15 60 4
0 11 -11 14 -24z"/>
<path d="M327 613 c-11 -10 -8 -113 3 -113 6 0 10 15 11 33 l1 32 14 -32 c21
-50 34 -40 34 27 0 64 -19 85 -21 23 l-1 -38 -11 32 c-14 37 -21 46 -30 36z"/>
<path d="M770 605 l0 -255 190 0 190 0 0 182 0 183 -72 72 -72 73 -118 0 -118
0 0 -255z m220 165 l0 -70 70 0 70 0 0 -165 0 -165 -170 0 -170 0 0 235 0 235
100 0 100 0 0 -70z m75 0 l49 -50 -52 0 -52 0 0 50 c0 28 1 50 3 50 1 0 25
-22 52 -50z"/>
<path d="M885 588 c-7 -29 7 -80 23 -86 7 -2 12 1 12 7 0 6 -5 11 -11 11 -7 0
-10 17 -7 45 3 47 -8 62 -17 23z"/>
<path d="M930 596 c0 -7 7 -19 15 -26 8 -7 15 -21 15 -31 0 -11 -7 -19 -15
-19 -8 0 -15 -5 -15 -11 0 -6 10 -9 23 -7 28 4 36 52 13 77 -9 10 -13 21 -9
24 3 4 -1 7 -10 7 -9 0 -17 -6 -17 -14z"/>
<path d="M995 573 c10 -57 15 -73 26 -73 13 0 11 51 -3 83 -18 39 -30 33 -23
-10z"/>
<path d="M1031 594 c0 -11 3 -14 6 -6 3 7 2 16 -1 19 -3 4 -6 -2 -5 -13z"/>
</g>
</svg>
