<?xml version="1.0" encoding="UTF-8" standalone="no"?>
<!DOCTYPE svg PUBLIC "-//W3C//DTD SVG 1.1//EN" "http://www.w3.org/Graphics/SVG/1.1/DTD/svg11.dtd">
<svg version="1.1" xmlns="http://www.w3.org/2000/svg" xmlns:xlink="http://www.w3.org/1999/xlink" preserveAspectRatio="xMidYMid meet" viewBox="2 0 22 24" width="18" height="20"><defs><path d="M17 9L7 9L7 7L17 7M17 13L7 13L7 11L17 11M14 17L7 17L7 15L14 15M12 3C12.55 3 13 3.45 13 4C13 4.55 12.55 5 12 5C11.45 5 11 4.55 11 4C11 3.45 11.45 3 12 3M14.82 3C14.4 1.84 13.3 1 12 1C10.7 1 9.6 1.84 9.18 3C8.76 3 5.42 3 5 3C3.9 3 3 3.9 3 5C3 6.4 3 17.6 3 19C3 20.1 3.9 21 5 21C6.4 21 17.6 21 19 21C20.1 21 21 20.1 21 19C21 17.6 21 6.4 21 5C21 3.9 20.1 3 19 3C18.16 3 15.24 3 14.82 3Z" id="a1c2xBPAG"></path></defs><g><g><use xlink:href="#a1c2xBPAG" opacity="1" fill="#ffffff" fill-opacity="1"></use><g><use xlink:href="#a1c2xBPAG" opacity="1" fill-opacity="0" stroke="#000000" stroke-width="1" stroke-opacity="0"></use></g></g></g></svg>